<mxfile host="app.diagrams.net" agent="Mozilla/5.0 (Macintosh; Intel Mac OS X 10_15_7) AppleWebKit/537.36 (KHTML, like Gecko) Chrome/134.0.0.0 Safari/537.36" version="26.1.1">
  <diagram name="第 1 页" id="q1tvJXlYlXFpctMhTwmR">
    <mxGraphModel dx="1000" dy="622" grid="1" gridSize="10" guides="1" tooltips="1" connect="1" arrows="1" fold="1" page="1" pageScale="1" pageWidth="4800" pageHeight="4800" math="0" shadow="0">
      <root>
        <mxCell id="0" />
        <mxCell id="1" parent="0" />
        <mxCell id="w9khWlyOOLM3TBVSgfRv-10" style="edgeStyle=orthogonalEdgeStyle;rounded=0;orthogonalLoop=1;jettySize=auto;html=1;exitX=0.5;exitY=1;exitDx=0;exitDy=0;entryX=0.5;entryY=0;entryDx=0;entryDy=0;" edge="1" parent="1" source="w9khWlyOOLM3TBVSgfRv-1" target="w9khWlyOOLM3TBVSgfRv-3">
          <mxGeometry relative="1" as="geometry" />
        </mxCell>
        <mxCell id="w9khWlyOOLM3TBVSgfRv-1" value="开始" style="rounded=1;whiteSpace=wrap;html=1;" vertex="1" parent="1">
          <mxGeometry x="510" y="110" width="160" height="40" as="geometry" />
        </mxCell>
        <mxCell id="w9khWlyOOLM3TBVSgfRv-11" style="edgeStyle=orthogonalEdgeStyle;rounded=0;orthogonalLoop=1;jettySize=auto;html=1;exitX=0.5;exitY=1;exitDx=0;exitDy=0;" edge="1" parent="1" source="w9khWlyOOLM3TBVSgfRv-3" target="w9khWlyOOLM3TBVSgfRv-4">
          <mxGeometry relative="1" as="geometry" />
        </mxCell>
        <mxCell id="w9khWlyOOLM3TBVSgfRv-3" value="查询用户素养的用户ID" style="rounded=1;whiteSpace=wrap;html=1;" vertex="1" parent="1">
          <mxGeometry x="510" y="190" width="160" height="40" as="geometry" />
        </mxCell>
        <mxCell id="w9khWlyOOLM3TBVSgfRv-12" style="edgeStyle=orthogonalEdgeStyle;rounded=0;orthogonalLoop=1;jettySize=auto;html=1;exitX=0.5;exitY=1;exitDx=0;exitDy=0;" edge="1" parent="1" source="w9khWlyOOLM3TBVSgfRv-4" target="w9khWlyOOLM3TBVSgfRv-5">
          <mxGeometry relative="1" as="geometry" />
        </mxCell>
        <mxCell id="w9khWlyOOLM3TBVSgfRv-4" value="查询素养在读课&lt;div&gt;【调素养的供应链】&lt;/div&gt;" style="rounded=1;whiteSpace=wrap;html=1;" vertex="1" parent="1">
          <mxGeometry x="510" y="270" width="160" height="40" as="geometry" />
        </mxCell>
        <mxCell id="w9khWlyOOLM3TBVSgfRv-13" style="edgeStyle=orthogonalEdgeStyle;rounded=0;orthogonalLoop=1;jettySize=auto;html=1;exitX=0.5;exitY=1;exitDx=0;exitDy=0;entryX=0.5;entryY=0;entryDx=0;entryDy=0;" edge="1" parent="1" source="w9khWlyOOLM3TBVSgfRv-5" target="w9khWlyOOLM3TBVSgfRv-6">
          <mxGeometry relative="1" as="geometry" />
        </mxCell>
        <mxCell id="w9khWlyOOLM3TBVSgfRv-5" value="查询在读课对应的续报课&lt;br&gt;&lt;div&gt;【需-新提供】&lt;/div&gt;" style="rounded=1;whiteSpace=wrap;html=1;" vertex="1" parent="1">
          <mxGeometry x="510" y="350" width="160" height="40" as="geometry" />
        </mxCell>
        <mxCell id="w9khWlyOOLM3TBVSgfRv-14" style="edgeStyle=orthogonalEdgeStyle;rounded=0;orthogonalLoop=1;jettySize=auto;html=1;exitX=0.5;exitY=1;exitDx=0;exitDy=0;entryX=0.5;entryY=0;entryDx=0;entryDy=0;" edge="1" parent="1" source="w9khWlyOOLM3TBVSgfRv-6" target="w9khWlyOOLM3TBVSgfRv-7">
          <mxGeometry relative="1" as="geometry" />
        </mxCell>
        <mxCell id="w9khWlyOOLM3TBVSgfRv-6" value="根据续报课查询联报课&lt;br&gt;&lt;div&gt;【现有接口】&lt;/div&gt;" style="rounded=1;whiteSpace=wrap;html=1;" vertex="1" parent="1">
          <mxGeometry x="510" y="430" width="160" height="40" as="geometry" />
        </mxCell>
        <mxCell id="w9khWlyOOLM3TBVSgfRv-15" style="edgeStyle=orthogonalEdgeStyle;rounded=0;orthogonalLoop=1;jettySize=auto;html=1;exitX=0.5;exitY=1;exitDx=0;exitDy=0;" edge="1" parent="1" source="w9khWlyOOLM3TBVSgfRv-7" target="w9khWlyOOLM3TBVSgfRv-8">
          <mxGeometry relative="1" as="geometry" />
        </mxCell>
        <mxCell id="w9khWlyOOLM3TBVSgfRv-7" value="查询联报课的换购课&lt;div&gt;【现有接口】&lt;/div&gt;" style="rounded=1;whiteSpace=wrap;html=1;" vertex="1" parent="1">
          <mxGeometry x="510" y="510" width="160" height="40" as="geometry" />
        </mxCell>
        <mxCell id="w9khWlyOOLM3TBVSgfRv-16" style="edgeStyle=orthogonalEdgeStyle;rounded=0;orthogonalLoop=1;jettySize=auto;html=1;exitX=0.5;exitY=1;exitDx=0;exitDy=0;entryX=0.5;entryY=0;entryDx=0;entryDy=0;" edge="1" parent="1" source="w9khWlyOOLM3TBVSgfRv-8" target="w9khWlyOOLM3TBVSgfRv-9">
          <mxGeometry relative="1" as="geometry" />
        </mxCell>
        <mxCell id="w9khWlyOOLM3TBVSgfRv-8" value="组装数据" style="rounded=1;whiteSpace=wrap;html=1;" vertex="1" parent="1">
          <mxGeometry x="510" y="590" width="160" height="40" as="geometry" />
        </mxCell>
        <mxCell id="w9khWlyOOLM3TBVSgfRv-9" value="结束" style="rounded=1;whiteSpace=wrap;html=1;" vertex="1" parent="1">
          <mxGeometry x="510" y="670" width="160" height="40" as="geometry" />
        </mxCell>
        <mxCell id="w9khWlyOOLM3TBVSgfRv-27" style="edgeStyle=orthogonalEdgeStyle;rounded=0;orthogonalLoop=1;jettySize=auto;html=1;exitX=0.5;exitY=0.5;exitDx=0;exitDy=0;exitPerimeter=0;" edge="1" parent="1" source="w9khWlyOOLM3TBVSgfRv-22" target="w9khWlyOOLM3TBVSgfRv-26">
          <mxGeometry relative="1" as="geometry" />
        </mxCell>
        <mxCell id="w9khWlyOOLM3TBVSgfRv-22" value="Actor" style="shape=umlActor;verticalLabelPosition=bottom;verticalAlign=top;html=1;outlineConnect=0;" vertex="1" parent="1">
          <mxGeometry x="950" y="290" width="30" height="60" as="geometry" />
        </mxCell>
        <mxCell id="w9khWlyOOLM3TBVSgfRv-29" style="edgeStyle=orthogonalEdgeStyle;rounded=0;orthogonalLoop=1;jettySize=auto;html=1;exitX=1;exitY=0.5;exitDx=0;exitDy=0;" edge="1" parent="1" source="w9khWlyOOLM3TBVSgfRv-26" target="w9khWlyOOLM3TBVSgfRv-28">
          <mxGeometry relative="1" as="geometry" />
        </mxCell>
        <mxCell id="w9khWlyOOLM3TBVSgfRv-26" value="续报中心" style="rounded=1;whiteSpace=wrap;html=1;" vertex="1" parent="1">
          <mxGeometry x="1080" y="290" width="120" height="60" as="geometry" />
        </mxCell>
        <mxCell id="w9khWlyOOLM3TBVSgfRv-32" style="edgeStyle=orthogonalEdgeStyle;rounded=0;orthogonalLoop=1;jettySize=auto;html=1;exitX=0.5;exitY=0;exitDx=0;exitDy=0;" edge="1" parent="1" source="w9khWlyOOLM3TBVSgfRv-28" target="w9khWlyOOLM3TBVSgfRv-30">
          <mxGeometry relative="1" as="geometry" />
        </mxCell>
        <mxCell id="w9khWlyOOLM3TBVSgfRv-33" value="是" style="edgeLabel;html=1;align=center;verticalAlign=middle;resizable=0;points=[];" vertex="1" connectable="0" parent="w9khWlyOOLM3TBVSgfRv-32">
          <mxGeometry x="0.2211" y="-3" relative="1" as="geometry">
            <mxPoint as="offset" />
          </mxGeometry>
        </mxCell>
        <mxCell id="w9khWlyOOLM3TBVSgfRv-34" style="edgeStyle=orthogonalEdgeStyle;rounded=0;orthogonalLoop=1;jettySize=auto;html=1;exitX=0.5;exitY=1;exitDx=0;exitDy=0;entryX=0;entryY=0.5;entryDx=0;entryDy=0;" edge="1" parent="1" source="w9khWlyOOLM3TBVSgfRv-28" target="w9khWlyOOLM3TBVSgfRv-31">
          <mxGeometry relative="1" as="geometry" />
        </mxCell>
        <mxCell id="w9khWlyOOLM3TBVSgfRv-35" value="否" style="edgeLabel;html=1;align=center;verticalAlign=middle;resizable=0;points=[];" vertex="1" connectable="0" parent="w9khWlyOOLM3TBVSgfRv-34">
          <mxGeometry x="0.2216" y="-3" relative="1" as="geometry">
            <mxPoint as="offset" />
          </mxGeometry>
        </mxCell>
        <mxCell id="w9khWlyOOLM3TBVSgfRv-28" value="是否有素养标签？" style="rhombus;whiteSpace=wrap;html=1;" vertex="1" parent="1">
          <mxGeometry x="1280" y="255" width="150" height="130" as="geometry" />
        </mxCell>
        <mxCell id="w9khWlyOOLM3TBVSgfRv-30" value="首页接口&lt;div&gt;【素养定制】&lt;/div&gt;" style="rounded=1;whiteSpace=wrap;html=1;" vertex="1" parent="1">
          <mxGeometry x="1520" y="195" width="120" height="60" as="geometry" />
        </mxCell>
        <mxCell id="w9khWlyOOLM3TBVSgfRv-31" value="首页接口" style="rounded=1;whiteSpace=wrap;html=1;" vertex="1" parent="1">
          <mxGeometry x="1520" y="375" width="120" height="60" as="geometry" />
        </mxCell>
      </root>
    </mxGraphModel>
  </diagram>
</mxfile>
